HIERARCHY
ROOT Hips
{
	OFFSET 234.239197 91.082298 198.650101
	CHANNELS 6 Xposition Yposition Zposition Zrotation Yrotation Xrotation 
	JOINT LeftUpLeg
	{
		OFFSET 0.103457 1.857824 10.548509
		CHANNELS 3 Zrotation Yrotation Xrotation
		JOINT LeftLeg
		{
			OFFSET 43.500000 -0.000023 0.000006
			CHANNELS 3 Zrotation Yrotation Xrotation
			JOINT LeftFoot
			{
				OFFSET 42.372192 0.000011 -0.000009
				CHANNELS 3 Zrotation Yrotation Xrotation
				JOINT LeftToe
				{
					OFFSET 17.300005 0.000002 -0.000010
					CHANNELS 3 Zrotation Yrotation Xrotation
					End Site
					{
						OFFSET 0.000000 0.000000 0.000000
					}
				}
			}
		}
	}
	JOINT RightUpLeg
	{
		OFFSET 0.103458 1.857836 -10.548506
		CHANNELS 3 Zrotation Yrotation Xrotation
		JOINT RightLeg
		{
			OFFSET 43.500038 -0.000023 0.000017
			CHANNELS 3 Zrotation Yrotation Xrotation
			JOINT RightFoot
			{
				OFFSET 42.372269 -0.000019 0.000007
				CHANNELS 3 Zrotation Yrotation Xrotation
				JOINT RightToe
				{
					OFFSET 17.299999 -0.000003 0.000008
					CHANNELS 3 Zrotation Yrotation Xrotation
					End Site
					{
						OFFSET 0.000000 0.000000 0.000000
					}
				}
			}
		}
	}
	JOINT Spine
	{
		OFFSET 6.901969 -2.603729 0.000003
		CHANNELS 3 Zrotation Yrotation Xrotation
		JOINT Spine1
		{
			OFFSET 12.588093 -0.000007 0.000001
			CHANNELS 3 Zrotation Yrotation Xrotation
			JOINT Spine2
			{
				OFFSET 12.343206 0.000014 -0.000007
				CHANNELS 3 Zrotation Yrotation Xrotation
				JOINT Neck
				{
					OFFSET 25.832899 -0.000010 0.000002
					CHANNELS 3 Zrotation Yrotation Xrotation
					JOINT Head
					{
						OFFSET 11.766599 0.000010 -0.000001
						CHANNELS 3 Zrotation Yrotation Xrotation
						End Site
						{
							OFFSET 0.000000 0.000000 0.000000
						}
					}
				}
				JOINT LeftShoulder
				{
					OFFSET 19.745895 -1.480371 6.000111
					CHANNELS 3 Zrotation Yrotation Xrotation
					JOINT LeftArm
					{
						OFFSET 11.284124 -0.000010 -0.000007
						CHANNELS 3 Zrotation Yrotation Xrotation
						JOINT LeftForeArm
						{
							OFFSET 33.000061 0.000006 0.000028
							CHANNELS 3 Zrotation Yrotation Xrotation
							JOINT LeftHand
							{
								OFFSET 25.200001 0.000019 0.000008
								CHANNELS 3 Zrotation Yrotation Xrotation
								End Site
								{
									OFFSET 0.000000 0.000000 0.000000
								}
							}
						}
					}
				}
				JOINT RightShoulder
				{
					OFFSET 19.746101 -1.480375 -6.000078
					CHANNELS 3 Zrotation Yrotation Xrotation
					JOINT RightArm
					{
						OFFSET 11.284128 -0.000010 -0.000011
						CHANNELS 3 Zrotation Yrotation Xrotation
						JOINT RightForeArm
						{
							OFFSET 33.000095 0.000022 0.000002
							CHANNELS 3 Zrotation Yrotation Xrotation
							JOINT RightHand
							{
								OFFSET 25.199768 0.000129 0.000422
								CHANNELS 3 Zrotation Yrotation Xrotation
								End Site
								{
									OFFSET 0.000000 0.000000 0.000000
								}
							}
						}
					}
				}
			}
		}
	}
}
MOTION
Frames: 12
Frame Time: 0.033333
-295.699310 88.999199 -61.301140 86.241370 -1.863380 89.627416 165.705471 -14.237588 173.618149 -71.033633 2.905507 -4.518265 69.210860 0.667141 -7.081202 21.454550 0.003087 -0.000003 158.859572 -5.045903 -167.497917 -26.589633 -2.968523 4.248231 82.099270 -2.936066 -0.003651 21.454560 -0.003110 -0.000018 7.482541 1.621030 -0.807348 4.932134 3.274678 -1.545983 4.613599 3.265415 -1.565749 6.840122 15.368573 -3.128990 -6.864328 -9.941374 1.855167 -172.194219 -83.292265 -9.467722 -21.950831 60.734117 36.871946 -29.220482 -14.740489 1.198205 11.711623 2.485851 -0.062702 -169.149116 71.700614 12.505679 20.516090 -56.212030 -32.425906 -47.595343 12.729470 -1.553571 -0.519295 8.628825 -7.273369 
-295.998901 89.534683 -58.548759 86.907382 -2.065407 88.732914 160.763501 -13.080498 173.586608 -75.190520 3.063759 -5.536950 70.250121 1.607127 -6.641809 21.454550 0.003091 0.000003 161.010057 -4.845190 -168.405267 -25.656234 -2.758891 3.977238 83.212768 -2.673073 0.289767 21.454555 -0.003104 -0.000018 7.486460 1.413969 -0.472549 4.950604 2.846646 -0.884874 4.632120 2.841399 -0.902066 7.521101 14.852945 -3.057843 -6.949185 -9.514140 1.645132 -168.351022 -82.908757 -13.352598 -17.617022 61.743763 41.863903 -27.592808 -13.035100 1.059270 12.618372 3.338305 0.475312 -169.565812 72.150396 12.077499 17.581158 -55.813864 -29.532338 -49.979896 12.918061 -1.641133 -0.990629 7.771136 -9.314606 
-296.163208 90.067528 -55.763741 87.670683 -2.453086 87.682499 156.066298 -11.541788 173.261258 -76.735420 3.072064 -6.078316 70.102459 1.709076 -7.478932 21.454558 0.003093 0.000000 163.053677 -4.498702 -169.385591 -24.463158 -2.587215 3.843914 84.023170 -2.502916 0.636522 21.454560 -0.003115 -0.000018 7.405801 1.171117 -0.118181 4.797838 2.346034 -0.188117 4.479453 2.345019 -0.202284 8.374877 14.103089 -2.876953 -6.944983 -9.014952 1.470281 -164.909426 -82.630358 -16.835110 -11.197322 62.754071 47.940142 -26.951496 -12.319355 1.002188 13.335538 3.293869 -0.661266 -171.371823 73.026962 10.223011 15.900421 -56.085671 -26.698912 -52.418218 13.333055 -1.748930 -1.128050 7.758820 -10.560022 
-296.306488 90.476196 -53.002319 88.148448 -2.905089 86.784711 151.700072 -10.198994 172.964077 -75.942394 2.857305 -5.971466 70.879086 1.632545 -7.665076 21.454555 0.003097 0.000002 164.838255 -4.333105 -169.919110 -23.539750 -2.632638 3.648024 84.675050 -2.247528 1.200499 21.454560 -0.003117 -0.000017 7.316429 0.982488 0.245819 4.625203 1.954394 0.530472 4.306932 1.957712 0.518648 8.779347 13.286996 -2.840515 -6.980506 -8.478517 1.198818 -160.956208 -82.437863 -20.837838 -4.007396 63.178198 54.336187 -27.260395 -12.311302 1.006920 13.196704 3.416908 -1.811066 -172.856351 73.926655 8.704089 14.529154 -56.527168 -23.938176 -55.159925 13.609410 -1.861428 -1.069328 8.927333 -10.443222 
-296.444885 90.630157 -50.240940 88.282224 -3.470666 86.196017 147.684386 -9.015197 173.082239 -73.104594 2.388800 -5.934226 71.892037 1.596037 -7.971820 21.454548 0.003079 0.000005 166.148149 -4.319187 -169.239220 -23.353098 -2.983739 3.026910 85.689484 -1.698850 1.798999 21.454558 -0.003102 -0.000015 7.202203 0.869885 0.605518 4.401370 1.716282 1.243524 4.083197 1.723898 1.233134 8.776295 12.474172 -3.035265 -7.070512 -7.870095 0.727793 -156.825706 -82.083561 -25.024760 2.686287 62.757807 60.108861 -28.181340 -12.594403 1.041247 12.630604 3.699025 -2.638320 -173.834899 74.702933 7.706973 13.443835 -56.853822 -20.870094 -58.170898 13.301192 -1.948197 -0.989723 10.486108 -9.592815 
-296.585602 90.589638 -47.412251 88.280912 -4.015166 85.727514 144.473254 -7.875103 173.490083 -68.147079 1.684512 -6.071284 72.293830 1.698232 -8.149872 21.454563 0.003103 -0.000006 167.326971 -4.279998 -169.149812 -23.673700 -2.987328 2.681342 87.127553 -1.355302 2.461695 21.454560 -0.003113 -0.000018 7.097776 0.779490 0.967346 4.196147 1.523708 1.962199 3.878132 1.535676 1.952963 8.401028 11.609070 -3.355061 -7.142265 -7.146126 0.128391 -154.206779 -81.801467 -27.682910 8.573440 62.016075 64.432043 -29.326882 -12.964131 1.085971 12.302737 3.684039 -3.171167 -174.627009 75.349916 6.901982 12.606947 -56.908720 -18.122855 -61.347564 12.867889 -2.036779 -0.825821 11.789104 -8.227037 
-296.735413 90.347977 -44.491199 88.138967 -4.452850 85.283695 142.316745 -6.903897 174.019614 -61.288346 0.873763 -6.323580 72.745121 1.969958 -8.077165 21.454550 0.003098 -0.000002 168.633395 -4.404304 -169.391164 -24.152128 -2.979679 2.489220 88.894468 -1.176901 2.928605 21.454558 -0.003102 -0.000017 7.010936 0.728398 1.317295 4.025711 1.410981 2.659053 3.707882 1.427158 2.650492 8.033873 10.735836 -3.663160 -7.311741 -6.410604 -0.464643 -152.248701 -81.580954 -29.671882 13.167695 61.299240 67.528216 -30.147837 -13.251231 1.120055 12.004942 3.476171 -4.106544 -175.886455 76.066929 5.621596 11.629901 -56.841138 -15.376853 -63.820536 12.380873 -2.098334 -0.671877 12.074227 -6.786248 
-296.944611 90.012390 -41.484440 87.857980 -4.840814 84.915104 141.331736 -6.170094 174.605945 -52.306886 0.170237 -6.032736 72.504931 1.935458 -7.572509 21.454553 0.003086 -0.000002 170.385790 -4.816301 -170.032997 -24.054637 -2.946460 2.573915 90.765783 -1.220301 3.307395 21.454557 -0.003116 -0.000018 6.934693 0.721387 1.597740 3.876350 1.389436 3.218712 3.558701 1.408979 3.210274 7.563563 10.053774 -3.888173 -7.477547 -5.966873 -0.861512 -149.364721 -81.312781 -32.601698 16.682908 60.968420 69.755834 -30.456199 -13.654930 1.152064 11.930954 3.045164 -4.873280 -178.056270 76.771354 3.414314 10.387895 -56.577346 -12.838836 -65.491815 12.049513 -2.141050 -0.646456 11.631034 -6.093048 
-297.150513 89.572571 -38.448151 87.660868 -5.378676 84.721304 141.452876 -5.417496 174.775429 -40.942725 -0.074958 -4.897224 71.161883 1.340383 -6.684506 21.454551 0.003092 -0.000002 172.199628 -5.222791 -171.155675 -23.605129 -2.816535 3.056006 92.784780 -1.557204 3.638173 21.454555 -0.003104 -0.000016 6.799215 0.709984 1.801141 3.607448 1.364206 3.623485 3.289939 1.386174 3.615195 7.223862 9.522724 -4.071557 -7.657402 -5.576080 -1.196016 -148.382827 -81.147319 -33.601939 19.446274 60.802399 70.901994 -30.395093 -13.643667 1.150147 12.078356 2.252815 -4.932349 179.799607 77.285052 1.234786 8.969707 -55.958862 -10.892699 -66.262042 11.898282 -2.161175 -0.626761 11.067307 -5.858218 
-297.353485 89.052696 -35.366638 87.529373 -5.933403 84.692413 142.763180 -4.627394 173.991023 -27.795439 0.111015 -3.489780 69.744250 0.331549 -6.447076 21.454548 0.003087 -0.000003 174.147817 -5.541312 -171.979191 -22.901284 -2.692486 3.531493 94.741349 -1.926729 3.689335 21.454557 -0.003101 -0.000017 6.627579 0.681751 1.935813 3.264785 1.309449 3.890036 2.947396 1.333033 3.882076 6.968293 9.271986 -4.248095 -7.825062 -5.364378 -1.442827 -147.425740 -81.246036 -34.568711 21.541208 60.897618 71.801838 -30.147407 -13.569225 1.140547 12.038213 1.796854 -4.814394 178.167178 77.727047 -0.420708 7.771924 -55.452096 -9.741504 -66.148326 11.968150 -2.161460 -0.623071 10.477333 -6.350450 
-297.514313 88.443459 -32.161709 87.220860 -6.164612 84.535619 145.028917 -3.793498 171.237733 -15.674511 1.719853 -1.813802 70.218566 -1.283363 -7.665551 21.454553 0.003095 0.000001 176.488386 -5.978807 -172.936715 -22.226954 -2.670268 3.954418 96.426288 -2.224075 4.016884 21.454558 -0.003101 -0.000018 6.522217 0.679237 2.034860 3.055117 1.305420 4.086906 2.737804 1.330193 4.078963 6.549190 9.126165 -4.298527 -7.893862 -5.055750 -1.562013 -146.426524 -81.325157 -35.578309 22.980250 61.005911 72.466320 -30.026734 -13.665631 1.144439 12.066688 1.991569 -4.516399 176.494342 77.831788 -2.123467 6.559097 -54.865892 -9.001149 -65.319660 12.126209 -2.139529 -0.445017 9.840442 -6.826082 
-297.552185 87.818199 -28.964609 86.853369 -6.275799 84.185203 146.429420 -3.162296 172.236539 -10.300484 2.738077 -3.182399 72.299806 0.380374 -5.925542 21.454551 0.003103 0.000007 178.528004 -6.203515 -173.498607 -22.327540 -2.707842 3.995315 97.674355 -2.241949 4.557358 21.454558 -0.003114 -0.000019 6.428053 0.707049 2.101758 2.868578 1.362741 4.220355 2.551331 1.388316 4.212065 6.471102 9.059025 -4.209843 -8.312385 -4.859854 -1.511800 -145.974393 -81.307221 -36.036928 23.361311 61.167957 72.577863 -29.799429 -13.425001 1.124584 12.057437 2.148579 -4.606945 174.570169 77.853645 -4.083680 5.493304 -54.494002 -8.988946 -63.586718 12.636576 -2.106736 0.001454 9.237013 -6.947029 
